<?xml version="1.0" encoding="UTF-8" standalone="no"?>
<svg width="703px" height="119px" viewBox="0 0 703 119" version="1.1" xmlns="http://www.w3.org/2000/svg" xmlns:xlink="http://www.w3.org/1999/xlink" xmlns:sketch="http://www.bohemiancoding.com/sketch/ns">
    <!-- Generator: Sketch 3.3.1 (12002) - http://www.bohemiancoding.com/sketch -->
    <title>Imported Layers + Imported Layers Copy 2 + Imported Layers Copy 4</title>
    <desc>Created with Sketch.</desc>
    <defs></defs>
    <g id="Desktop" stroke="none" stroke-width="1" fill="none" fill-rule="evenodd" sketch:type="MSPage">
        <g id="Imported-Layers-+-Imported-Layers-Copy-2-+-Imported-Layers-Copy-4" sketch:type="MSLayerGroup" transform="translate(-1.000000, -1.000000)" fill="#110081" opacity="0.150000006">
            <path d="M2.532,34.065 L23.101,9.551 L52.211,33.977 L72.78,9.464 L101.889,33.89 L122.459,9.376 L151.568,33.802 L172.138,9.289 L201.247,33.715 L221.816,9.201 L250.926,33.627 L271.495,9.114 L300.605,33.54 L321.174,9.026 L350.284,33.452 L370.853,8.939 L399.963,33.365 L420.532,8.851 L449.642,33.277 L470.211,8.764 L499.321,33.19 L519.89,8.676 L549,33.102 L569.569,8.589 L598.678,33.015 L619.248,8.501 L648.357,32.927 L668.927,8.414 L698.036,32.84 L703.179,26.711 L672.537,1 L651.968,25.513 L622.858,1.087 L602.289,25.601 L573.179,1.175 L552.61,25.688 L523.5,1.262 L502.931,25.776 L473.821,1.35 L453.252,25.863 L424.142,1.437 L403.573,25.951 L374.463,1.525 L353.894,26.038 L324.784,1.612 L304.215,26.126 L275.106,1.7 L254.536,26.213 L225.427,1.787 L204.857,26.301 L175.748,1.875 L155.179,26.388 L126.069,1.962 L105.5,26.476 L76.39,2.05 L55.821,26.563 L26.711,2.137 L1,32.779 L2.532,34.065" id="Imported-Layers" sketch:type="MSShapeGroup" transform="translate(353.000000, 18.000000) rotate(0.150000) translate(-353.000000, -18.000000) "></path>
            <path d="M2.532,77.065 L23.101,52.551 L52.211,76.977 L72.78,52.464 L101.889,76.89 L122.459,52.376 L151.568,76.802 L172.138,52.289 L201.247,76.715 L221.816,52.201 L250.926,76.627 L271.495,52.114 L300.605,76.54 L321.174,52.026 L350.284,76.452 L370.853,51.939 L399.963,76.365 L420.532,51.851 L449.642,76.277 L470.211,51.764 L499.321,76.19 L519.89,51.676 L549,76.102 L569.569,51.589 L598.678,76.015 L619.248,51.501 L648.357,75.927 L668.927,51.414 L698.036,75.84 L703.179,69.711 L672.537,44 L651.968,68.513 L622.858,44.087 L602.289,68.601 L573.179,44.175 L552.61,68.688 L523.5,44.262 L502.931,68.776 L473.821,44.35 L453.252,68.863 L424.142,44.437 L403.573,68.951 L374.463,44.525 L353.894,69.038 L324.784,44.612 L304.215,69.126 L275.106,44.7 L254.536,69.213 L225.427,44.787 L204.857,69.301 L175.748,44.875 L155.179,69.388 L126.069,44.962 L105.5,69.476 L76.39,45.05 L55.821,69.563 L26.711,45.137 L1,75.779 L2.532,77.065" id="Imported-Layers-Copy-2" sketch:type="MSShapeGroup" transform="translate(353.000000, 61.000000) rotate(0.150000) translate(-353.000000, -61.000000) "></path>
            <path d="M2.532,120.065 L23.101,95.551 L52.211,119.977 L72.78,95.464 L101.889,119.89 L122.459,95.376 L151.568,119.802 L172.138,95.289 L201.247,119.715 L221.816,95.201 L250.926,119.627 L271.495,95.114 L300.605,119.54 L321.174,95.026 L350.284,119.452 L370.853,94.939 L399.963,119.365 L420.532,94.851 L449.642,119.277 L470.211,94.764 L499.321,119.19 L519.89,94.676 L549,119.102 L569.569,94.589 L598.678,119.015 L619.248,94.501 L648.357,118.927 L668.927,94.414 L698.036,118.84 L703.179,112.711 L672.537,87 L651.968,111.513 L622.858,87.087 L602.289,111.601 L573.179,87.175 L552.61,111.688 L523.5,87.262 L502.931,111.776 L473.821,87.35 L453.252,111.863 L424.142,87.437 L403.573,111.951 L374.463,87.525 L353.894,112.038 L324.784,87.612 L304.215,112.126 L275.106,87.7 L254.536,112.213 L225.427,87.787 L204.857,112.301 L175.748,87.875 L155.179,112.388 L126.069,87.962 L105.5,112.476 L76.39,88.05 L55.821,112.563 L26.711,88.137 L1,118.779 L2.532,120.065" id="Imported-Layers-Copy-4" sketch:type="MSShapeGroup" transform="translate(353.000000, 104.000000) rotate(0.150000) translate(-353.000000, -104.000000) "></path>
        </g>
    </g>
</svg>