<?xml version="1.0" encoding="utf-8"?>
<!-- Generator: Adobe Illustrator 17.0.0, SVG Export Plug-In . SVG Version: 6.00 Build 0)  -->
<!DOCTYPE svg PUBLIC "-//W3C//DTD SVG 1.1//EN" "http://www.w3.org/Graphics/SVG/1.1/DTD/svg11.dtd">
<svg version="1.1" xmlns="http://www.w3.org/2000/svg" xmlns:xlink="http://www.w3.org/1999/xlink" x="0px" y="0px"
	 width="1346.167px" height="1000px" viewBox="0 0 1346.167 1000" enable-background="new 0 0 1346.167 1000" xml:space="preserve">
<g id="Layer_1">
	<rect x="0.167" y="-0.032" opacity="0.1" fill="#182F3F" width="1360" height="1000"/>
	<path fill="none" stroke="#1C75BC" stroke-width="130" stroke-linecap="round" stroke-linejoin="round" stroke-miterlimit="10" d="
		M-386.868-3801.711"/>
	<path fill="none" stroke="#1C75BC" stroke-width="130" stroke-linecap="round" stroke-linejoin="round" stroke-miterlimit="10" d="
		M-386.868-3801.711"/>
</g>
<g id="Layer_3">
	<path fill="#282F33" d="M870.326,261.667l-95.777-55.133c-3.089-1.777-6.804-2.058-10.125-0.761
		c-3.32,1.296-5.866,4.028-6.933,7.429c-3.099,9.871-7.916,17.654-14.325,23.133c-5.067,4.332-11.268,7.361-18.434,9.003
		c-12.853,2.945-24.529,0.464-25.143,0.329c-6.025-1.482-12.067,2.003-13.921,7.929c-3.112,9.945-7.957,17.843-14.401,23.473
		c-5.097,4.453-11.328,7.62-18.521,9.413c-12.855,3.205-24.516,0.966-25.118,0.846c-5.968-1.344-11.866,2.139-13.694,7.98
		c-3.111,9.94-7.952,17.824-14.389,23.434c-5.09,4.435-11.314,7.582-18.499,9.351c-12.853,3.165-24.514,0.885-25.109,0.764
		c-5.977-1.366-11.9,2.117-13.732,7.972c-3.113,9.947-7.951,17.842-14.382,23.468c-5.082,4.446-11.293,7.606-18.46,9.392
		c-11.483,2.861-22.007,1.353-24.498,0.923c-0.812-0.213-1.659-0.339-2.529-0.372c-4.958-0.255-9.595,2.682-11.469,7.451
		c-0.729,1.854-0.701,3.797-0.701,5.666v122.219c0,4.199,2.411,8.079,6.047,10.178l89.953,51.851v103.429
		c0,4.201,2.051,8.082,5.69,10.181l95.563,55.182c1.817,1.048,3.798,1.573,5.826,1.573c2.028,0,4.032-0.524,5.849-1.573
		l95.925-55.182c3.639-2.099,6.147-5.981,6.147-10.181V457.225l89.447-51.775c3.639-2.099,5.553-5.981,5.553-10.182V271.854
		C876.167,267.649,873.971,263.764,870.326,261.667z M542.797,378.426c7.754-6.642,13.917-15.135,18.392-25.328
		c6.376,0.384,15.106,0.23,24.451-1.935c11.046-2.56,20.751-7.359,28.845-14.265c7.781-6.639,13.961-15.14,18.443-25.349
		c6.378,0.365,15.119,0.186,24.476-2.011c11.04-2.591,20.738-7.414,28.826-14.333c7.732-6.616,13.883-15.065,18.357-25.197
		c6.374,0.484,15.07,0.467,24.379-1.532c11.094-2.383,20.844-7.043,28.979-13.851c6.732-5.634,12.268-12.671,16.548-21.016
		l75.254,43.308c-2.868,5.934-6.537,10.831-10.964,14.621c-5.059,4.33-11.251,7.352-18.405,8.98
		c-12.845,2.924-24.514,0.399-25.114,0.265c-6.035-1.506-12.1,1.979-13.959,7.92c-3.112,9.946-7.958,17.845-14.401,23.478
		c-5.097,4.455-11.327,7.624-18.519,9.42c-12.844,3.207-24.495,0.979-25.112,0.856c-5.967-1.342-11.864,2.141-13.691,7.981
		c-3.11,9.941-7.952,17.826-14.389,23.436c-5.09,4.436-11.314,7.584-18.498,9.355c-12.844,3.166-24.499,0.892-25.106,0.769
		c-5.977-1.366-11.898,2.117-13.731,7.972c-3.112,9.946-7.958,17.845-14.401,23.477c-5.097,4.455-8.305,7.22-18.519,9.42
		c-13.896,2.994-22.335,1.416-27.76-0.98l-56.476-33.036C528.986,388.072,536.396,383.909,542.797,378.426z M758.167,443.597
		v220.645l-84.256,48.419l-0.453-220.507l-96.292,55.418V447.395c1,0.004,15.86,4.57,32.431,0.529
		c14.59-3.558,20.737-7.42,28.823-14.342c7.768-6.649,13.94-15.147,18.419-25.344c6.375,0.383,15.106,0.228,24.452-1.94
		c11.045-2.561,20.749-7.362,28.842-14.269c7.781-6.641,13.961-15.142,18.443-25.353c6.377,0.363,15.117,0.18,24.474-2.02
		c11.037-2.595,20.734-7.42,28.82-14.342c7.724-6.611,13.87-15.053,18.342-25.173c6.374,0.501,14.765,0.503,24.065-1.478
		c10.735-2.288,20.89-6.72,27.89-13.178v77.992L758.167,443.597z"/>
</g>
<g id="Layer_2">
</g>
</svg>
