<?xml version="1.0" encoding="utf-8"?>
<!-- Generator: Adobe Illustrator 17.0.0, SVG Export Plug-In . SVG Version: 6.00 Build 0)  -->
<!DOCTYPE svg PUBLIC "-//W3C//DTD SVG 1.1//EN" "http://www.w3.org/Graphics/SVG/1.1/DTD/svg11.dtd">
<svg version="1.1" id="Layer_1" xmlns="http://www.w3.org/2000/svg" xmlns:xlink="http://www.w3.org/1999/xlink" x="0px" y="0px"
	 width="300px" height="300px" viewBox="0 0 300 300" enable-background="new 0 0 300 300" xml:space="preserve">
<g>
	<path fill="#46B7B7" d="M104.128,204.221c0,6.513-5.28,11.792-11.792,11.792c-6.513,0-11.793-5.279-11.793-11.792
		c0-6.513,5.28-11.792,11.793-11.792C98.848,192.429,104.128,197.708,104.128,204.221"/>
	<path fill="#46B7B7" d="M108.458,89.999c0,4.588-3.719,8.307-8.307,8.307c-4.587,0-8.306-3.719-8.306-8.307
		c0-4.588,3.719-8.307,8.306-8.307C104.739,81.692,108.458,85.411,108.458,89.999"/>
	<path fill="#46B7B7" d="M153.801,123.32c0,4.228-3.427,7.655-7.655,7.655c-4.228,0-7.655-3.427-7.655-7.655
		c0-4.228,3.427-7.655,7.655-7.655C150.374,115.665,153.801,119.092,153.801,123.32"/>
	<path fill="#46B7B7" d="M170.17,76.837c0,3.796-3.077,6.873-6.873,6.873c-3.796,0-6.873-3.077-6.873-6.873
		c0-3.796,3.077-6.873,6.873-6.873C167.093,69.964,170.17,73.041,170.17,76.837"/>
	<path fill="#46B7B7" d="M229.67,160.99c0,4.71-3.818,8.528-8.528,8.528c-4.71,0-8.529-3.818-8.529-8.528
		c0-4.71,3.819-8.528,8.529-8.528C225.852,152.462,229.67,156.28,229.67,160.99"/>
	<path fill="#46B7B7" d="M238.476,133.456c0,4.319-3.501,7.82-7.82,7.82s-7.821-3.501-7.821-7.82c0-4.319,3.502-7.82,7.821-7.82
		S238.476,129.137,238.476,133.456"/>
	<path fill="#46B7B7" d="M178.312,104.772c0,5.075-4.114,9.189-9.189,9.189c-5.076,0-9.19-4.114-9.19-9.189
		c0-5.075,4.114-9.189,9.19-9.189C174.198,95.583,178.312,99.697,178.312,104.772"/>
	<path fill="#46B7B7" d="M133.084,101.725c0,5.372-4.355,9.727-9.727,9.727c-5.372,0-9.727-4.355-9.727-9.727
		c0-5.372,4.355-9.727,9.727-9.727C128.729,91.998,133.084,96.353,133.084,101.725"/>
	<path fill="#46B7B7" d="M138.586,77.001c0,3.074-2.492,5.565-5.565,5.565c-3.074,0-5.566-2.491-5.566-5.565
		c0-3.074,2.492-5.565,5.566-5.565C136.094,71.436,138.586,73.927,138.586,77.001"/>
	<path fill="#46B7B7" d="M78.304,109.915c0,5.372-4.355,9.727-9.727,9.727s-9.727-4.355-9.727-9.727
		c0-5.372,4.355-9.727,9.727-9.727S78.304,104.543,78.304,109.915"/>
	<path fill="#46B7B7" d="M68.49,167.252c0,5.372-4.355,9.727-9.727,9.727s-9.727-4.355-9.727-9.727c0-5.372,4.355-9.727,9.727-9.727
		S68.49,161.88,68.49,167.252"/>
	<path fill="#46B7B7" d="M135.554,225.623c0,6.283-5.093,11.376-11.376,11.376c-6.283,0-11.376-5.093-11.376-11.376
		c0-6.283,5.093-11.376,11.376-11.376C130.461,214.247,135.554,219.34,135.554,225.623"/>
	<path fill="#46B7B7" d="M173.024,231.956c0,5.372-4.355,9.727-9.727,9.727c-5.372,0-9.727-4.355-9.727-9.727
		c0-5.372,4.355-9.727,9.727-9.727C168.669,222.229,173.024,226.584,173.024,231.956"/>
	<path fill="#46B7B7" d="M202.982,180.149c0,5.372-4.355,9.727-9.727,9.727c-5.372,0-9.727-4.355-9.727-9.727
		c0-5.372,4.355-9.727,9.727-9.727C198.627,170.422,202.982,174.777,202.982,180.149"/>
	<path fill="#46B7B7" d="M234.207,189.985c0,5.372-4.355,9.727-9.727,9.727c-5.372,0-9.727-4.355-9.727-9.727
		c0-5.372,4.355-9.727,9.727-9.727C229.852,180.258,234.207,184.613,234.207,189.985"/>
	<path fill="#46B7B7" d="M78.304,187.308c0,3.524-2.857,6.382-6.382,6.382c-3.524,0-6.381-2.858-6.381-6.382
		c0-3.524,2.857-6.382,6.381-6.382C75.447,180.926,78.304,183.785,78.304,187.308"/>
	<path fill="#46B7B7" d="M97.014,176.628c0,2.895-2.347,5.241-5.241,5.241c-2.895,0-5.242-2.346-5.242-5.241
		c0-2.895,2.347-5.241,5.242-5.241C94.667,171.387,97.014,173.733,97.014,176.628"/>
	<path fill="#46B7B7" d="M126.034,198.811c0,3.524-2.857,6.382-6.382,6.382c-3.524,0-6.381-2.858-6.381-6.382
		c0-3.524,2.857-6.382,6.381-6.382C123.177,192.429,126.034,195.287,126.034,198.811"/>
	<path fill="#46B7B7" d="M129.484,131.668c0,3.525-2.857,6.382-6.382,6.382c-3.524,0-6.381-2.857-6.381-6.382
		c0-3.524,2.857-6.382,6.381-6.382C126.627,125.286,129.484,128.144,129.484,131.668"/>
	<path fill="#46B7B7" d="M151.237,154.968c0,3.524-2.857,6.382-6.382,6.382c-3.524,0-6.381-2.858-6.381-6.382
		c0-3.524,2.857-6.382,6.381-6.382C148.38,148.586,151.237,151.444,151.237,154.968"/>
	<path fill="#46B7B7" d="M151.237,58.393c0,3.524-2.857,6.382-6.382,6.382c-3.524,0-6.381-2.858-6.381-6.382
		c0-3.525,2.857-6.382,6.381-6.382C148.38,52.011,151.237,54.868,151.237,58.393"/>
	<path fill="#46B7B7" d="M194.507,68.207c0,3.524-2.857,6.382-6.382,6.382c-3.524,0-6.381-2.858-6.381-6.382
		c0-3.524,2.857-6.382,6.381-6.382C191.649,61.825,194.507,64.683,194.507,68.207"/>
	<path fill="#46B7B7" d="M189.681,214.454c0,3.524-2.857,6.382-6.382,6.382c-3.524,0-6.381-2.858-6.381-6.382
		c0-3.524,2.857-6.382,6.381-6.382C186.824,208.072,189.681,210.93,189.681,214.454"/>
	<path fill="#46B7B7" d="M147.695,222.701c0,1.576-1.278,2.854-2.854,2.854c-1.576,0-2.854-1.278-2.854-2.854
		c0-1.576,1.278-2.854,2.854-2.854C146.417,219.847,147.695,221.125,147.695,222.701"/>
	<path fill="#46B7B7" d="M146.491,242.845c0,2.416-1.958,4.374-4.374,4.374s-4.375-1.958-4.375-4.374
		c0-2.416,1.959-4.374,4.375-4.374S146.491,240.429,146.491,242.845"/>
	<path fill="#46B7B7" d="M190.715,234.146c0,2.416-1.958,4.374-4.374,4.374s-4.375-1.958-4.375-4.374
		c0-2.416,1.959-4.374,4.375-4.374S190.715,231.73,190.715,234.146"/>
	<path fill="#46B7B7" d="M226.178,210.727c0,2.416-1.958,4.374-4.374,4.374s-4.375-1.958-4.375-4.374
		c0-2.416,1.959-4.374,4.375-4.374S226.178,208.311,226.178,210.727"/>
	<path fill="#46B7B7" d="M70.083,207.989c0,2.416-1.958,4.374-4.374,4.374s-4.375-1.958-4.375-4.374
		c0-2.416,1.959-4.374,4.375-4.374S70.083,205.573,70.083,207.989"/>
	<path fill="#46B7B7" d="M56.749,143.858c0,2.416-1.958,4.374-4.374,4.374S48,146.274,48,143.858c0-2.416,1.959-4.374,4.375-4.374
		S56.749,141.442,56.749,143.858"/>
	<path fill="#46B7B7" d="M94.922,111.174c0,1.677-1.359,3.036-3.036,3.036c-1.677,0-3.036-1.359-3.036-3.036
		c0-1.677,1.359-3.036,3.036-3.036C93.562,108.138,94.922,109.497,94.922,111.174"/>
	<path fill="#46B7B7" d="M107.424,113.683c0,1.156-0.937,2.094-2.094,2.094c-1.156,0-2.094-0.938-2.094-2.094
		c0-1.156,0.938-2.094,2.094-2.094C106.487,111.589,107.424,112.527,107.424,113.683"/>
	<path fill="#46B7B7" d="M185.556,86.885c0,2.154-1.746,3.9-3.9,3.9c-2.153,0-3.899-1.746-3.899-3.9c0-2.154,1.746-3.9,3.899-3.9
		C183.81,82.985,185.556,84.731,185.556,86.885"/>
	<path fill="#46B7B7" d="M174.053,59.36c0,1.465-1.188,2.653-2.654,2.653c-1.465,0-2.653-1.188-2.653-2.653
		c0-1.466,1.188-2.654,2.653-2.654C172.865,56.706,174.053,57.894,174.053,59.36"/>
	<path fill="#46B7B7" d="M125.449,61.436c0,1.156-0.937,2.094-2.094,2.094c-1.156,0-2.094-0.938-2.094-2.094
		c0-1.156,0.938-2.094,2.094-2.094C124.512,59.342,125.449,60.28,125.449,61.436"/>
	<path fill="#46B7B7" d="M131.326,148.4c0,1.518-1.23,2.748-2.748,2.748c-1.518,0-2.748-1.23-2.748-2.748
		c0-1.518,1.23-2.748,2.748-2.748C130.096,145.652,131.326,146.882,131.326,148.4"/>
	<path fill="#46B7B7" d="M161.006,144.414c0,1.815-1.471,3.285-3.285,3.285c-1.815,0-3.286-1.47-3.286-3.285
		c0-1.814,1.471-3.285,3.286-3.285C159.535,141.129,161.006,142.6,161.006,144.414"/>
	<path fill="#46B7B7" d="M201.878,157.691c0,2.308-1.871,4.179-4.179,4.179c-2.308,0-4.178-1.871-4.178-4.179
		c0-2.308,1.87-4.179,4.178-4.179C200.007,153.512,201.878,155.383,201.878,157.691"/>
	<path fill="#46B7B7" d="M240.179,173.48c0,1.156-0.937,2.094-2.094,2.094c-1.156,0-2.094-0.938-2.094-2.094
		c0-1.156,0.938-2.094,2.094-2.094C239.242,171.386,240.179,172.324,240.179,173.48"/>
	<path fill="#46B7B7" d="M243.525,188.424c0,1.156-0.937,2.094-2.094,2.094c-1.156,0-2.094-0.938-2.094-2.094
		c0-1.156,0.938-2.094,2.094-2.094C242.588,186.33,243.525,187.268,243.525,188.424"/>
	<path fill="#46B7B7" d="M252,142.478c0,1.156-0.937,2.094-2.094,2.094c-1.156,0-2.094-0.938-2.094-2.094
		c0-1.156,0.938-2.094,2.094-2.094C251.063,140.384,252,141.322,252,142.478"/>
	<path fill="#46B7B7" d="M203.264,203.321c0,2.155-1.747,3.901-3.901,3.901c-2.155,0-3.902-1.746-3.902-3.901
		c0-2.155,1.747-3.901,3.902-3.901C201.517,199.421,203.264,201.166,203.264,203.321"/>
	<path fill="#46B7B7" d="M61.453,129.646c0,1.156-0.937,2.094-2.094,2.094c-1.156,0-2.094-0.938-2.094-2.094
		c0-1.156,0.938-2.094,2.094-2.094C60.516,127.552,61.453,128.49,61.453,129.646"/>
	<path fill="#46B7B7" d="M53.686,189.852c0,1.156-0.937,2.094-2.094,2.094c-1.156,0-2.094-0.938-2.094-2.094
		c0-1.156,0.938-2.094,2.094-2.094C52.749,187.758,53.686,188.696,53.686,189.852"/>
	<path fill="#46B7B7" d="M171.257,127.265c0,2.593-2.102,4.694-4.694,4.694c-2.593,0-4.694-2.101-4.694-4.694
		c0-2.593,2.101-4.694,4.694-4.694C169.155,122.572,171.257,124.672,171.257,127.265"/>
	<path fill="#46B7B7" d="M78.081,89.395c0,1.677-1.359,3.036-3.036,3.036s-3.036-1.359-3.036-3.036c0-1.677,1.359-3.036,3.036-3.036
		S78.081,87.718,78.081,89.395"/>
	<path fill="#46B7B7" d="M213.584,140.79c0,2.852-2.312,5.163-5.163,5.163c-2.852,0-5.163-2.311-5.163-5.163
		c0-2.852,2.311-5.163,5.163-5.163C211.272,135.627,213.584,137.938,213.584,140.79"/>
	<path fill="#46B7B7" d="M112.804,183.867c0,1.677-1.359,3.036-3.036,3.036s-3.036-1.359-3.036-3.036
		c0-1.677,1.359-3.036,3.036-3.036S112.804,182.19,112.804,183.867"/>
	<path fill="#46B7B7" d="M153.676,95.496c0,2.93-2.375,5.305-5.305,5.305c-2.931,0-5.306-2.375-5.306-5.305
		c0-2.93,2.375-5.305,5.306-5.305C151.301,90.191,153.676,92.566,153.676,95.496"/>
	<path fill="#46B7B7" d="M99.047,228.793c0,1.677-1.359,3.036-3.036,3.036c-1.677,0-3.036-1.359-3.036-3.036
		c0-1.677,1.359-3.036,3.036-3.036C97.687,225.757,99.047,227.117,99.047,228.793"/>
	<path fill="#46B7B7" d="M237.999,109.915c0,1.677-1.359,3.036-3.036,3.036s-3.036-1.359-3.036-3.036
		c0-1.677,1.359-3.036,3.036-3.036S237.999,108.238,237.999,109.915"/>
	<path fill="#46B7B7" d="M107.689,67.904c0,2.416-1.958,4.374-4.374,4.374s-4.375-1.958-4.375-4.374
		c0-2.416,1.959-4.374,4.375-4.374S107.689,65.488,107.689,67.904"/>
	<path fill="#46B7B7" d="M209.888,75.565c-11.457,0-20.745,9.288-20.745,20.745c0,1.254,0.01,2.513,0.104,3.764
		c0.161,2.147,1.403,4.071,1.628,6.229c0.23,2.203,0.137,4.337-0.392,6.492c-0.275,1.123-0.688,2.202-1.277,3.201l-28.286,47.883
		c-1.056,1.791-2.241,3.49-3.624,5.043c-1.392,1.562-2.802,1.623-4.773,1.635c-2.465,0.016-4.936,0.55-7.231,1.434
		c-3.902,1.501-5.436-0.38-9.087-3.071l-21.213-15.554c-3.65-2.692-6.441-6.382-6.083-8.227v-1.769
		c0-11.456-9.203-20.744-20.66-20.744s-20.703,9.36-20.703,20.817c0,4.799,1.696,9.596,4.811,13.227
		c3.092,3.604,7.168,6.512,11.942,7.228c1.506,0.226,3.035,0.265,4.555,0.22c0.825-0.024,1.65-0.075,2.473-0.136
		c1.222-0.091,2.255-0.236,3.448-0.474c0.893-0.177,1.804-0.225,2.713-0.188c1.898,0.077,3.84,0.44,5.589,1.192
		c0.936,0.402,1.912,0.908,2.733,1.514c0,0,21.146,15.539,21.146,15.54c1.664,1.226,3.222,2.679,4.462,4.339
		c1.251,1.676,1.555,3.6,1.555,5.642c0,11.456,9.27,20.744,20.727,20.744s20.736-9.288,20.736-20.744
		c0-1.445,0.016-2.844-0.248-4.272c-0.375-2.024-1.104-3.986-1.316-6.04c-0.218-2.107-0.177-4.186,0.29-6.258
		c0.246-1.095,0.633-2.148,1.205-3.117l28.284-47.988c0.991-1.678,2.112-3.29,3.384-4.767c0.929-1.078,1.852-1.945,3.287-2.208
		c1.176-0.216,2.377-0.097,3.561-0.219c1.066-0.109,2.13-0.363,3.157-0.661c2.145-0.625,4.215-1.577,5.996-2.936
		c3.208-2.449,6.035-5.864,7.373-9.704c0.769-2.208,1.224-4.786,1.224-7.128C230.633,84.792,221.345,75.565,209.888,75.565"/>
	<path fill="#46B7B7" d="M208.217,220.603c0,2.735-2.217,4.952-4.952,4.952s-4.952-2.217-4.952-4.952
		c0-2.735,2.217-4.952,4.952-4.952S208.217,217.868,208.217,220.603"/>
	<path fill="#46B7B7" d="M246.239,154.968c0,2.822-2.287,5.109-5.109,5.109c-2.821,0-5.109-2.287-5.109-5.109
		c0-2.822,2.288-5.109,5.109-5.109C243.952,149.859,246.239,152.146,246.239,154.968"/>
</g>
</svg>
