<?xml version="1.0" encoding="utf-8"?>
<!-- Generator: Adobe Illustrator 17.0.0, SVG Export Plug-In . SVG Version: 6.00 Build 0)  -->
<!DOCTYPE svg PUBLIC "-//W3C//DTD SVG 1.1//EN" "http://www.w3.org/Graphics/SVG/1.1/DTD/svg11.dtd">
<svg version="1.1" id="Layer_1" xmlns="http://www.w3.org/2000/svg" xmlns:xlink="http://www.w3.org/1999/xlink" x="0px" y="0px"
	 width="300px" height="300px" viewBox="0 0 300 300" enable-background="new 0 0 300 300" xml:space="preserve">
<g>
	<path fill="#46B7B7" d="M163.837,128.329c0,3.896-3.158,7.054-7.054,7.054s-7.054-3.158-7.054-7.054
		c0-3.896,3.158-7.054,7.054-7.054S163.837,124.433,163.837,128.329"/>
	<path fill="#46B7B7" d="M185.101,161.388c0,2.915-2.363,5.278-5.278,5.278s-5.278-2.363-5.278-5.278
		c0-2.915,2.363-5.278,5.278-5.278S185.101,158.473,185.101,161.388"/>
	<path fill="#46B7B7" d="M141.789,136.732c0,2.43-1.97,4.4-4.4,4.4c-2.43,0-4.4-1.97-4.4-4.4c0-2.43,1.97-4.4,4.4-4.4
		C139.819,132.332,141.789,134.302,141.789,136.732"/>
	<path fill="#46B7B7" d="M151.664,148.769c0,1.773-1.437,3.21-3.21,3.21c-1.774,0-3.211-1.437-3.211-3.21
		c0-1.773,1.437-3.21,3.211-3.21C150.227,145.559,151.664,146.996,151.664,148.769"/>
	<path fill="#46B7B7" d="M127.423,175.476c0,2.255-1.828,4.083-4.083,4.083s-4.083-1.828-4.083-4.083
		c0-2.255,1.828-4.083,4.083-4.083S127.423,173.221,127.423,175.476"/>
	<path fill="#46B7B7" d="M181.457,113.898c-5.986,0-10.838,4.852-10.838,10.838c0,0.655,0.005,1.313,0.054,1.967
		c0.084,1.122,0.733,2.127,0.851,3.254c0.12,1.151,0.071,2.266-0.205,3.392c-0.144,0.587-0.36,1.151-0.668,1.672l-14.777,25.017
		c-0.552,0.936-1.172,1.823-1.894,2.635c-0.727,0.816-1.464,0.848-2.494,0.854c-1.288,0.008-2.578,0.288-3.778,0.749
		c-2.038,0.785-2.84-0.198-4.747-1.604l-11.072-8.127c-1.907-1.406-3.354-3.333-3.167-4.298v-0.924
		c0-5.985-4.82-10.838-10.805-10.838c-5.986,0-10.822,4.891-10.822,10.876c0,2.508,0.883,5.014,2.511,6.911
		c1.615,1.883,3.743,3.402,6.238,3.776c0.786,0.118,1.585,0.138,2.379,0.115c0.431-0.013,0.861-0.039,1.291-0.071
		c0.639-0.047,1.178-0.123,1.801-0.247c0.467-0.093,0.943-0.118,1.418-0.099c0.991,0.04,2.006,0.23,2.92,0.623
		c0.489,0.21,0.999,0.474,1.428,0.791l11.048,8.119c0.869,0.64,1.683,1.399,2.331,2.267c0.653,0.876,0.812,1.881,0.812,2.947
		c0,5.986,4.844,10.838,10.829,10.838c5.986,0,10.834-4.852,10.834-10.838c0-0.754,0.008-1.485-0.13-2.231
		c-0.196-1.058-0.576-2.083-0.687-3.156c-0.114-1.101-0.093-2.187,0.151-3.27c0.129-0.572,0.331-1.122,0.63-1.628l14.777-25.072
		c0.518-0.876,1.103-1.719,1.768-2.49c0.485-0.563,0.968-1.016,1.717-1.154c0.615-0.113,1.242-0.051,1.861-0.114
		c0.556-0.057,1.113-0.19,1.649-0.346c1.121-0.326,2.202-0.823,3.133-1.534c1.676-1.279,3.153-3.063,3.852-5.069
		c0.401-1.154,0.639-2.501,0.639-3.724C192.295,118.719,187.443,113.898,181.457,113.898"/>
</g>
</svg>
