<?xml version="1.0" encoding="utf-8"?>
<!-- Generator: Adobe Illustrator 17.0.0, SVG Export Plug-In . SVG Version: 6.00 Build 0)  -->
<!DOCTYPE svg PUBLIC "-//W3C//DTD SVG 1.1//EN" "http://www.w3.org/Graphics/SVG/1.1/DTD/svg11.dtd">
<svg version="1.1" id="Layer_1" xmlns="http://www.w3.org/2000/svg" xmlns:xlink="http://www.w3.org/1999/xlink" x="0px" y="0px"
	 width="300px" height="300px" viewBox="0 0 300 300" enable-background="new 0 0 300 300" xml:space="preserve">
<g>
	<path fill="#46B7B7" d="M159.395,137.598c-1.91,0-3.458,1.548-3.458,3.458c0,0.209,0.001,0.419,0.017,0.628
		c0.027,0.358,0.234,0.678,0.272,1.038c0.038,0.367,0.022,0.723-0.066,1.082c-0.046,0.187-0.115,0.367-0.213,0.534l-4.715,7.982
		c-0.176,0.298-0.374,0.582-0.604,0.841c-0.232,0.26-0.467,0.27-0.796,0.272c-0.411,0.003-0.822,0.092-1.205,0.239
		c-0.651,0.25-0.906-0.063-1.515-0.512l-3.533-2.593c-0.608-0.448-1.07-1.063-1.01-1.371v-0.295c0-1.91-1.538-3.458-3.448-3.458
		s-3.453,1.56-3.453,3.47c0,0.8,0.282,1.6,0.801,2.205c0.516,0.601,1.195,1.086,1.991,1.205c0.251,0.038,0.505,0.044,0.759,0.037
		c0.137-0.004,0.275-0.013,0.412-0.023c0.204-0.015,0.376-0.039,0.575-0.079c0.149-0.029,0.3-0.037,0.452-0.031
		c0.316,0.013,0.64,0.073,0.932,0.198c0.156,0.068,0.318,0.152,0.455,0.253l3.525,2.59c0.278,0.205,0.537,0.447,0.744,0.724
		c0.209,0.279,0.259,0.6,0.259,0.94c0,1.91,1.546,3.458,3.455,3.458c1.91,0,3.457-1.548,3.457-3.458
		c0-0.241,0.003-0.474-0.041-0.712c-0.063-0.337-0.184-0.664-0.22-1.007c-0.036-0.351-0.029-0.698,0.049-1.043
		c0.041-0.183,0.105-0.358,0.201-0.52l4.715-7.999c0.165-0.28,0.352-0.549,0.564-0.795c0.155-0.18,0.308-0.324,0.548-0.368
		c0.196-0.036,0.396-0.016,0.593-0.036c0.178-0.019,0.355-0.061,0.526-0.111c0.358-0.104,0.703-0.263,1-0.489
		c0.535-0.408,1.006-0.978,1.229-1.618c0.128-0.368,0.204-0.797,0.204-1.188C162.853,139.136,161.305,137.598,159.395,137.598"/>
	<path fill="#46B7B7" d="M150.629,144.625c0,1.308-1.061,2.369-2.369,2.369s-2.369-1.061-2.369-2.369
		c0-1.308,1.061-2.369,2.369-2.369S150.629,143.317,150.629,144.625"/>
	<path fill="#46B7B7" d="M142.034,159.263c0,1.308-1.061,2.369-2.369,2.369s-2.369-1.061-2.369-2.369
		c0-1.308,1.061-2.369,2.369-2.369S142.034,157.955,142.034,159.263"/>
	<path fill="#46B7B7" d="M163.853,151.363c0,1.308-1.061,2.369-2.369,2.369s-2.369-1.061-2.369-2.369
		c0-1.308,1.061-2.369,2.369-2.369S163.853,150.055,163.853,151.363"/>
</g>
</svg>
