<?xml version="1.0" encoding="UTF-8" standalone="no"?>
<svg width="64px" height="48px" viewBox="0 0 64 48" version="1.1" xmlns="http://www.w3.org/2000/svg" xmlns:xlink="http://www.w3.org/1999/xlink" xmlns:sketch="http://www.bohemiancoding.com/sketch/ns">
    <!-- Generator: Sketch 3.3.1 (12002) - http://www.bohemiancoding.com/sketch -->
    <title>Fill 1</title>
    <desc>Created with Sketch.</desc>
    <defs></defs>
    <g id="Desktop" stroke="none" stroke-width="1" fill="none" fill-rule="evenodd" sketch:type="MSPage">
        <g id="Home" sketch:type="MSArtboardGroup" transform="translate(-53.000000, -110.000000)" fill="#151515">
            <path d="M116.459717,129.33502 L91.9025086,112.947815 C91.5841767,112.735449 91.1846357,112.685134 90.8234503,112.811984 C90.4624471,112.938833 90.1823491,113.227976 90.0674651,113.5925 C89.3979772,115.715493 87.8303885,117.372421 85.7667928,118.138432 C84.9809621,118.430064 84.1600584,118.578034 83.3270584,118.578034 C81.9955593,118.578095 80.6892252,118.201553 79.5494425,117.489013 C79.5264049,117.474629 79.5029418,117.461276 79.4791748,117.448531 C79.4729747,117.445253 79.4667139,117.442279 79.4605138,117.439063 C79.4313369,117.424011 79.4017345,117.40999 79.3715851,117.397488 C79.3648987,117.394696 79.3582731,117.392025 79.3516475,117.389415 C79.3236256,117.378369 79.2952389,117.368598 79.2667307,117.359676 C79.2571266,117.356641 79.2475833,117.353485 79.2378577,117.350754 C79.2082553,117.342317 79.1784098,117.335156 79.1483211,117.329025 C79.137623,117.326841 79.1269248,117.324898 79.1162874,117.322956 C79.0855301,117.317554 79.0548336,117.313002 79.0238939,117.309968 C79.0158095,117.309179 79.0078466,117.308815 78.9997622,117.308208 C78.9706461,117.305901 78.9416516,117.304627 78.9125355,117.304445 C78.9063962,117.304384 78.9003177,117.304081 78.8941176,117.304141 C78.8608073,117.304384 78.827497,117.306387 78.7942475,117.309422 C78.7870141,117.310089 78.7797807,117.310696 78.7725472,117.311546 C78.7391762,117.315127 78.7059267,117.319982 78.672738,117.326416 C78.6673281,117.327508 78.6618574,117.328783 78.6563868,117.329936 C78.6249001,117.336491 78.5935349,117.344199 78.5624129,117.353303 C78.5585834,117.354395 78.5548755,117.355306 78.5510461,117.356459 C78.5274006,117.363621 78.5039376,117.371389 78.4807176,117.380069 C78.4727548,117.383043 78.4650351,117.386441 78.457133,117.389597 C78.4488054,117.392814 78.4405994,117.396152 78.4323934,117.399551 C78.4029126,117.411993 78.3739789,117.425285 78.3457138,117.439852 C78.3376901,117.444039 78.3298488,117.448531 78.321886,117.452901 C78.2977543,117.46601 78.2741696,117.479848 78.251132,117.494536 C78.2435947,117.499331 78.2359357,117.503944 78.2283984,117.508921 C78.2031725,117.525793 78.1787977,117.54388 78.1549091,117.562573 C78.1465816,117.569068 78.1381932,117.575501 78.130048,117.582299 C78.1056731,117.602388 78.0822101,117.623449 78.0594764,117.645359 C78.0528508,117.651793 78.0464076,117.658348 78.0398428,117.664902 C78.0159542,117.689119 77.9928559,117.714064 77.9710948,117.740102 C77.9679339,117.743925 77.9649555,117.74787 77.9617946,117.751694 C77.9380884,117.780887 77.9154156,117.810991 77.8943231,117.842309 C77.89408,117.842673 77.8938368,117.842977 77.8935329,117.843341 C77.8934721,117.843462 77.8934113,117.843584 77.8932897,117.843705 C77.8725012,117.874901 77.8533539,117.907372 77.8354223,117.940511 C77.8326261,117.94567 77.8297085,117.950768 77.8269731,117.955927 C77.8112906,117.98591 77.797006,118.01662 77.7837549,118.047938 C77.7801078,118.056678 77.7765822,118.065357 77.7731783,118.074158 C77.7621154,118.102198 77.7516603,118.130542 77.7427249,118.159614 C77.0889196,120.273199 75.5263152,121.926243 73.4556684,122.694864 C72.6601729,122.990137 71.8313063,123.139807 70.9922279,123.139867 C69.6683269,123.139928 68.3723871,122.767271 67.2446398,122.062257 C67.2215414,122.047812 67.1980176,122.03452 67.1741898,122.021775 C67.1682328,122.018497 67.1621543,122.015584 67.1559542,122.012428 C67.1266558,121.997315 67.0968711,121.983234 67.0666,121.970671 C67.060096,121.96794 67.0536528,121.96539 67.0471488,121.962781 C67.0190053,121.951674 66.990497,121.941841 66.9616848,121.932859 C66.9522023,121.929885 66.9427806,121.92679 66.9332374,121.924058 C66.9034526,121.915561 66.8734248,121.908399 66.8431538,121.902209 C66.8328203,121.900084 66.8223044,121.898142 66.8119102,121.896321 C66.7810313,121.890798 66.7499093,121.886246 66.7186657,121.883151 C66.7111284,121.882423 66.703591,121.882119 66.6960536,121.881512 C66.6661473,121.879145 66.636241,121.87781 66.6062739,121.877628 C66.6008641,121.877628 66.5954542,121.877324 66.5899835,121.877385 C66.5560654,121.877628 66.5222081,121.879631 66.4883507,121.882726 C66.4818467,121.883333 66.4754035,121.88394 66.4688995,121.884668 C66.434799,121.88831 66.4008201,121.893287 66.3670843,121.899842 C66.3625862,121.900752 66.3580881,121.901845 66.35359,121.902755 C66.3205837,121.909553 66.2877597,121.917625 66.255118,121.927214 C66.2525043,121.928003 66.2497689,121.92861 66.247216,121.929399 C66.2232666,121.936683 66.1994388,121.944512 66.1758542,121.953252 C66.1674658,121.956408 66.1593206,121.960049 66.150993,121.963327 C66.143638,121.966301 66.1362222,121.969214 66.1288064,121.97231 C66.0985962,121.984994 66.0689938,121.99865 66.0401209,122.013581 C66.0329482,122.017283 66.0259579,122.021289 66.0187853,122.025173 C65.9933163,122.039012 65.9685159,122.053639 65.9441411,122.069115 C65.9384881,122.072818 65.9326527,122.076095 65.9269389,122.079858 C65.9000718,122.097702 65.8742382,122.116942 65.8489515,122.136728 C65.8412926,122.142736 65.8336337,122.148684 65.8261571,122.154875 C65.8011136,122.175389 65.7771642,122.196936 65.7538835,122.219392 C65.7478658,122.225219 65.7419696,122.231227 65.7361342,122.237175 C65.711577,122.261817 65.6879924,122.287308 65.665745,122.314013 C65.663192,122.317169 65.6606391,122.320507 65.6580253,122.323663 C65.6095187,122.382961 65.566726,122.446932 65.5300725,122.514787 C65.5274588,122.519399 65.5249058,122.523951 65.5224744,122.528625 C65.5065487,122.558971 65.492021,122.590107 65.4787091,122.62191 C65.4752443,122.630165 65.4718403,122.638358 65.4686187,122.646613 C65.457495,122.674896 65.44704,122.703482 65.4379222,122.732737 C64.7827189,124.850813 63.2208439,126.505678 61.1528717,127.273267 C60.3653998,127.565566 59.5412137,127.713597 58.7032901,127.713597 C57.3705753,127.713597 56.0633294,127.34094 54.9229388,126.636533 C54.3590348,126.288274 53.6195832,126.454756 53.2608899,127.011557 C53.1838144,127.131123 53.1319038,127.259307 53.101025,127.390283 C53.0362887,127.538618 53,127.702065 53,127.874192 L53,140.468062 C53,140.873979 53.2032048,141.253069 53.5414743,141.478181 L77.5516163,157.455645 C77.7588937,157.593601 77.993099,157.659574 78.2247513,157.659574 C78.4273482,157.659574 78.6278785,157.608653 78.8068301,157.511604 L116.081755,144.098434 C116.563842,143.924973 116.885213,143.468195 116.885213,142.956489 L116.885213,130.885674 C116.90509,130.826802 116.925088,130.76799 116.943749,130.708814 C117.106046,130.194316 116.908798,129.634724 116.459717,129.33502 L116.459717,129.33502 Z M86.6139557,120.414008 C88.0180931,119.892834 89.2468653,119.070985 90.2660502,117.971222 C90.8686744,117.320953 91.3815797,116.582619 91.7853148,115.78966 L114.30385,130.816362 C113.520997,132.535623 112.107864,133.863472 110.323941,134.525636 C109.537988,134.817329 108.717206,134.965238 107.884389,134.965238 C106.556172,134.965238 105.253485,134.590518 104.116073,133.881801 L84.6747264,120.908537 C85.3338808,120.813249 85.9825193,120.648405 86.6139557,120.414008 L86.6139557,120.414008 Z M74.3028921,124.97044 C76.5822752,124.124314 78.4029734,122.481709 79.470361,120.355621 L101.984398,135.379349 C101.212548,137.091812 99.8028179,138.417294 98.012877,139.081704 C97.2171383,139.377038 96.3883325,139.526404 95.5494972,139.526404 C94.2255354,139.526404 92.9295956,139.15308 91.8018483,138.448126 C91.7989914,138.446306 91.7960738,138.444788 91.7932169,138.443028 L72.350898,125.469035 C73.0136387,125.372837 73.6664714,125.206597 74.3028921,124.97044 L74.3028921,124.97044 Z M62.0000346,129.549025 C64.2779588,128.703566 66.0981099,127.05908 67.165923,124.929168 L89.6778322,139.951501 C88.9051311,141.664752 87.4966779,142.986593 85.7100194,143.649728 C84.922426,143.942028 84.098483,144.079316 83.2608634,144.079316 L83.2605594,144.079316 C81.934531,144.079316 80.6337891,143.72165 79.4975927,143.024284 L60.0352755,130.042401 C60.70373,129.947476 61.3610001,129.786214 62.0000346,129.549025 L62.0000346,129.549025 Z M55.4314068,129.892731 L77.010142,144.289983 L77.010142,154.17784 L55.4314068,139.818279 L55.4314068,129.892731 L55.4314068,129.892731 Z M79.4415488,154.702655 L79.4415488,145.722892 C80.6445481,146.240788 81.9426762,146.50705 83.2604987,146.50705 L83.2609242,146.50705 C84.3886106,146.50705 85.4977576,146.318536 86.5572431,145.925304 C88.8841602,145.061699 90.7339137,143.375516 91.7915149,141.178538 C92.9750021,141.689091 94.2520377,141.954806 95.5494972,141.954806 C96.6786425,141.954806 97.7924092,141.75385 98.8600399,141.357644 C101.188112,140.493492 103.038291,138.798691 104.095527,136.606205 C105.289895,137.123615 106.577447,137.392972 107.884389,137.392972 C109.007334,137.392972 110.113259,137.193898 111.171164,136.801212 C112.409723,136.341521 113.511576,135.647492 114.453807,134.735514 L114.453807,142.103687 L79.4415488,154.702655 Z M110.051745,119.246146 C112.604843,119.246146 114.681872,117.172255 114.681872,114.623073 C114.681872,112.073892 112.604843,110 110.051745,110 C107.498767,110 105.421738,112.073892 105.421738,114.623073 C105.421738,117.172255 107.498767,119.246146 110.051745,119.246146 Z M110.051745,112.427734 C111.264105,112.427734 112.250466,113.412544 112.250466,114.623073 C112.250466,115.833602 111.264105,116.818412 110.051745,116.818412 C108.839506,116.818412 107.853145,115.833602 107.853145,114.623073 C107.853145,113.412544 108.839506,112.427734 110.051745,112.427734 L110.051745,112.427734 Z" id="Fill-1" sketch:type="MSShapeGroup"></path>
        </g>
    </g>
</svg>