<?xml version="1.0" encoding="utf-8"?>
<!-- Generator: Adobe Illustrator 17.0.0, SVG Export Plug-In . SVG Version: 6.00 Build 0)  -->
<!DOCTYPE svg PUBLIC "-//W3C//DTD SVG 1.1//EN" "http://www.w3.org/Graphics/SVG/1.1/DTD/svg11.dtd">
<svg version="1.1" id="Layer_1" xmlns="http://www.w3.org/2000/svg" xmlns:xlink="http://www.w3.org/1999/xlink" x="0px" y="0px"
	 width="400px" height="400px" viewBox="0 0 400 400" enable-background="new 0 0 400 400" xml:space="preserve">
<rect fill="#46B7B7" width="400" height="400"/>
<g>
	<path fill="#FFFFFF" d="M135.174,277.171c0,9.204-7.462,16.665-16.665,16.665c-9.204,0-16.666-7.46-16.666-16.665
		s7.462-16.665,16.666-16.665C127.712,260.506,135.174,267.967,135.174,277.171"/>
	<path fill="#FFFFFF" d="M141.292,115.749c0,6.484-5.256,11.74-11.74,11.74c-6.482,0-11.738-5.256-11.738-11.74
		c0-6.484,5.256-11.74,11.738-11.74C136.037,104.01,141.292,109.265,141.292,115.749"/>
	<path fill="#FFFFFF" d="M205.372,162.84c0,5.975-4.843,10.818-10.818,10.818c-5.975,0-10.818-4.843-10.818-10.818
		c0-5.975,4.843-10.818,10.818-10.818C200.529,152.022,205.372,156.865,205.372,162.84"/>
	<path fill="#FFFFFF" d="M228.505,97.15c0,5.365-4.348,9.713-9.713,9.713c-5.365,0-9.713-4.348-9.713-9.713
		c0-5.365,4.348-9.713,9.713-9.713C224.156,87.437,228.505,91.785,228.505,97.15"/>
	<path fill="#FFFFFF" d="M312.591,216.076c0,6.656-5.396,12.052-12.052,12.052c-6.656,0-12.053-5.396-12.053-12.052
		c0-6.656,5.397-12.052,12.053-12.052C307.195,204.024,312.591,209.419,312.591,216.076"/>
	<path fill="#FFFFFF" d="M325.036,177.164c0,6.104-4.948,11.051-11.051,11.051c-6.104,0-11.053-4.948-11.053-11.051
		c0-6.104,4.949-11.051,11.053-11.051C320.088,166.113,325.036,171.06,325.036,177.164"/>
	<path fill="#FFFFFF" d="M240.012,136.628c0,7.172-5.814,12.986-12.986,12.986c-7.173,0-12.987-5.814-12.987-12.986
		c0-7.172,5.814-12.986,12.987-12.986C234.198,123.641,240.012,129.455,240.012,136.628"/>
	<path fill="#FFFFFF" d="M176.094,132.321c0,7.592-6.155,13.746-13.746,13.746c-7.592,0-13.746-6.155-13.746-13.746
		c0-7.592,6.155-13.746,13.746-13.746C169.939,118.574,176.094,124.729,176.094,132.321"/>
	<path fill="#FFFFFF" d="M183.869,97.381c0,4.344-3.522,7.865-7.865,7.865c-4.344,0-7.866-3.52-7.866-7.865
		c0-4.344,3.522-7.865,7.866-7.865C180.348,89.516,183.869,93.037,183.869,97.381"/>
	<path fill="#FFFFFF" d="M98.678,143.895c0,7.592-6.155,13.746-13.746,13.746s-13.746-6.155-13.746-13.746
		c0-7.592,6.155-13.746,13.746-13.746S98.678,136.303,98.678,143.895"/>
	<path fill="#FFFFFF" d="M84.81,224.925c0,7.592-6.155,13.746-13.746,13.746s-13.746-6.155-13.746-13.746
		s6.155-13.746,13.746-13.746S84.81,217.333,84.81,224.925"/>
	<path fill="#FFFFFF" d="M179.585,307.416c0,8.879-7.198,16.077-16.077,16.077c-8.879,0-16.077-7.198-16.077-16.077
		c0-8.879,7.198-16.077,16.077-16.077C172.387,291.339,179.585,298.537,179.585,307.416"/>
	<path fill="#FFFFFF" d="M232.538,316.365c0,7.592-6.155,13.746-13.746,13.746s-13.746-6.155-13.746-13.746
		s6.155-13.746,13.746-13.746S232.538,308.773,232.538,316.365"/>
	<path fill="#FFFFFF" d="M274.875,243.151c0,7.592-6.155,13.746-13.746,13.746c-7.592,0-13.746-6.155-13.746-13.746
		c0-7.592,6.155-13.746,13.746-13.746C268.721,229.404,274.875,235.559,274.875,243.151"/>
	<path fill="#FFFFFF" d="M319.003,257.052c0,7.592-6.155,13.746-13.746,13.746c-7.592,0-13.746-6.155-13.746-13.746
		c0-7.592,6.155-13.746,13.746-13.746C312.849,243.305,319.003,249.46,319.003,257.052"/>
	<path fill="#FFFFFF" d="M98.678,253.269c0,4.98-4.038,9.019-9.019,9.019c-4.98,0-9.018-4.039-9.018-9.019
		c0-4.98,4.038-9.019,9.018-9.019C94.641,244.25,98.678,248.289,98.678,253.269"/>
	<path fill="#FFFFFF" d="M125.12,238.175c0,4.091-3.317,7.407-7.407,7.407c-4.091,0-7.408-3.315-7.408-7.407
		c0-4.091,3.317-7.407,7.408-7.407C121.803,230.768,125.12,234.084,125.12,238.175"/>
	<path fill="#FFFFFF" d="M166.131,269.524c0,4.98-4.038,9.019-9.019,9.019c-4.98,0-9.018-4.039-9.018-9.019
		c0-4.98,4.038-9.019,9.018-9.019C162.094,260.505,166.131,264.544,166.131,269.524"/>
	<path fill="#FFFFFF" d="M171.007,174.637c0,4.982-4.038,9.019-9.019,9.019c-4.98,0-9.018-4.038-9.018-9.019
		c0-4.98,4.038-9.019,9.018-9.019C166.969,165.618,171.007,169.657,171.007,174.637"/>
	<path fill="#FFFFFF" d="M201.749,207.565c0,4.98-4.038,9.019-9.019,9.019c-4.98,0-9.018-4.039-9.018-9.019
		c0-4.98,4.038-9.019,9.018-9.019C197.711,198.546,201.749,202.585,201.749,207.565"/>
	<path fill="#FFFFFF" d="M201.749,71.084c0,4.98-4.038,9.019-9.019,9.019c-4.98,0-9.018-4.039-9.018-9.019
		c0-4.982,4.038-9.019,9.018-9.019C197.711,62.065,201.749,66.102,201.749,71.084"/>
	<path fill="#FFFFFF" d="M262.898,84.952c0,4.98-4.038,9.019-9.019,9.019c-4.98,0-9.018-4.039-9.018-9.019
		c0-4.98,4.038-9.019,9.018-9.019C258.86,75.933,262.898,79.972,262.898,84.952"/>
	<path fill="#FFFFFF" d="M256.078,291.632c0,4.98-4.038,9.019-9.019,9.019c-4.98,0-9.018-4.039-9.018-9.019s4.038-9.019,9.018-9.019
		C252.041,282.613,256.078,286.652,256.078,291.632"/>
	<path fill="#FFFFFF" d="M196.743,303.286c0,2.227-1.806,4.033-4.033,4.033c-2.227,0-4.033-1.806-4.033-4.033
		c0-2.227,1.806-4.033,4.033-4.033C194.937,299.253,196.743,301.059,196.743,303.286"/>
	<path fill="#FFFFFF" d="M195.041,331.754c0,3.414-2.767,6.181-6.181,6.181c-3.414,0-6.183-2.767-6.183-6.181
		c0-3.414,2.768-6.181,6.183-6.181C192.274,325.573,195.041,328.34,195.041,331.754"/>
	<path fill="#FFFFFF" d="M257.539,319.461c0,3.414-2.767,6.181-6.181,6.181c-3.414,0-6.183-2.767-6.183-6.181
		c0-3.414,2.768-6.181,6.183-6.181C254.772,313.28,257.539,316.047,257.539,319.461"/>
	<path fill="#FFFFFF" d="M307.656,286.365c0,3.414-2.767,6.181-6.181,6.181c-3.414,0-6.183-2.767-6.183-6.181
		c0-3.414,2.768-6.181,6.183-6.181C304.889,280.184,307.656,282.951,307.656,286.365"/>
	<path fill="#FFFFFF" d="M87.06,282.495c0,3.414-2.767,6.181-6.181,6.181s-6.183-2.767-6.183-6.181c0-3.414,2.768-6.181,6.183-6.181
		S87.06,279.08,87.06,282.495"/>
	<path fill="#FFFFFF" d="M68.216,191.864c0,3.414-2.767,6.181-6.181,6.181c-3.414,0-6.183-2.767-6.183-6.181
		c0-3.414,2.768-6.181,6.183-6.181C65.449,185.683,68.216,188.45,68.216,191.864"/>
	<path fill="#FFFFFF" d="M122.162,145.674c0,2.37-1.921,4.291-4.291,4.291c-2.37,0-4.291-1.921-4.291-4.291
		c0-2.37,1.921-4.29,4.291-4.29C120.242,141.384,122.162,143.304,122.162,145.674"/>
	<path fill="#FFFFFF" d="M139.831,149.221c0,1.634-1.324,2.959-2.959,2.959c-1.634,0-2.959-1.326-2.959-2.959
		c0-1.634,1.326-2.959,2.959-2.959C138.507,146.262,139.831,147.587,139.831,149.221"/>
	<path fill="#FFFFFF" d="M250.249,111.35c0,3.044-2.467,5.512-5.512,5.512c-3.043,0-5.51-2.467-5.51-5.512
		c0-3.044,2.467-5.512,5.51-5.512C247.782,105.838,250.249,108.306,250.249,111.35"/>
	<path fill="#FFFFFF" d="M233.992,72.45c0,2.07-1.679,3.749-3.751,3.749c-2.07,0-3.749-1.679-3.749-3.749
		c0-2.072,1.679-3.751,3.749-3.751C232.313,68.699,233.992,70.378,233.992,72.45"/>
	<path fill="#FFFFFF" d="M165.305,75.385c0,1.634-1.324,2.959-2.959,2.959c-1.634,0-2.959-1.326-2.959-2.959
		c0-1.634,1.326-2.959,2.959-2.959C163.981,72.425,165.305,73.751,165.305,75.385"/>
	<path fill="#FFFFFF" d="M173.61,198.283c0,2.145-1.738,3.884-3.884,3.884c-2.145,0-3.884-1.738-3.884-3.884
		c0-2.145,1.738-3.883,3.884-3.883C171.872,194.399,173.61,196.138,173.61,198.283"/>
	<path fill="#FFFFFF" d="M215.554,192.65c0,2.565-2.079,4.642-4.642,4.642c-2.565,0-4.644-2.077-4.644-4.642
		c0-2.564,2.079-4.642,4.644-4.642C213.475,188.008,215.554,190.087,215.554,192.65"/>
	<path fill="#FFFFFF" d="M273.315,211.413c0,3.262-2.644,5.906-5.906,5.906c-3.262,0-5.904-2.644-5.904-5.906
		c0-3.262,2.643-5.906,5.904-5.906C270.671,205.507,273.315,208.151,273.315,211.413"/>
	<path fill="#FFFFFF" d="M327.443,233.727c0,1.634-1.324,2.959-2.959,2.959c-1.634,0-2.959-1.326-2.959-2.959
		c0-1.634,1.326-2.959,2.959-2.959C326.118,230.768,327.443,232.093,327.443,233.727"/>
	<path fill="#FFFFFF" d="M332.171,254.845c0,1.634-1.324,2.959-2.959,2.959c-1.634,0-2.959-1.326-2.959-2.959
		c0-1.634,1.326-2.959,2.959-2.959C330.847,251.886,332.171,253.212,332.171,254.845"/>
	<path fill="#FFFFFF" d="M344.148,189.914c0,1.634-1.324,2.959-2.959,2.959c-1.634,0-2.959-1.326-2.959-2.959
		c0-1.634,1.326-2.959,2.959-2.959C342.824,186.955,344.148,188.28,344.148,189.914"/>
	<path fill="#FFFFFF" d="M275.274,275.899c0,3.046-2.469,5.513-5.513,5.513c-3.046,0-5.514-2.467-5.514-5.513
		s2.469-5.513,5.514-5.513C272.805,270.386,275.274,272.853,275.274,275.899"/>
	<path fill="#FFFFFF" d="M74.864,171.78c0,1.634-1.324,2.959-2.959,2.959c-1.634,0-2.959-1.326-2.959-2.959
		c0-1.634,1.326-2.959,2.959-2.959C73.54,168.821,74.864,170.146,74.864,171.78"/>
	<path fill="#FFFFFF" d="M63.888,256.863c0,1.634-1.324,2.959-2.959,2.959c-1.634,0-2.959-1.326-2.959-2.959
		s1.326-2.959,2.959-2.959C62.564,253.904,63.888,255.23,63.888,256.863"/>
	<path fill="#FFFFFF" d="M230.041,168.415c0,3.664-2.971,6.634-6.634,6.634c-3.664,0-6.634-2.969-6.634-6.634
		c0-3.664,2.969-6.634,6.634-6.634C227.071,161.782,230.041,164.751,230.041,168.415"/>
	<path fill="#FFFFFF" d="M98.363,114.896c0,2.37-1.921,4.291-4.291,4.291s-4.291-1.921-4.291-4.291c0-2.37,1.921-4.29,4.291-4.29
		S98.363,112.527,98.363,114.896"/>
	<path fill="#FFFFFF" d="M289.859,187.528c0,4.031-3.267,7.296-7.296,7.296c-4.031,0-7.296-3.266-7.296-7.296
		c0-4.03,3.266-7.296,7.296-7.296C286.591,180.232,289.859,183.498,289.859,187.528"/>
	<path fill="#FFFFFF" d="M147.434,248.406c0,2.37-1.921,4.291-4.291,4.291s-4.291-1.921-4.291-4.291c0-2.37,1.921-4.291,4.291-4.291
		S147.434,246.036,147.434,248.406"/>
	<path fill="#FFFFFF" d="M205.195,123.519c0,4.141-3.356,7.497-7.497,7.497c-4.142,0-7.499-3.356-7.499-7.497
		c0-4.141,3.356-7.497,7.499-7.497C201.838,116.022,205.195,119.378,205.195,123.519"/>
	<path fill="#FFFFFF" d="M127.992,311.896c0,2.37-1.921,4.291-4.291,4.291c-2.37,0-4.291-1.921-4.291-4.291
		c0-2.37,1.921-4.29,4.291-4.29C126.071,307.606,127.992,309.526,127.992,311.896"/>
	<path fill="#FFFFFF" d="M324.362,143.895c0,2.37-1.921,4.291-4.291,4.291c-2.37,0-4.29-1.921-4.29-4.291
		c0-2.37,1.921-4.29,4.29-4.29C322.441,139.604,324.362,141.525,324.362,143.895"/>
	<path fill="#FFFFFF" d="M140.205,84.525c0,3.414-2.767,6.181-6.181,6.181c-3.414,0-6.183-2.767-6.183-6.181
		c0-3.414,2.768-6.181,6.183-6.181C137.438,78.344,140.205,81.111,140.205,84.525"/>
	<path fill="#FFFFFF" d="M284.634,95.351c-16.191,0-29.317,13.126-29.317,29.317c0,1.772,0.014,3.551,0.147,5.319
		c0.228,3.034,1.983,5.753,2.301,8.803c0.325,3.113,0.194,6.129-0.554,9.175c-0.389,1.587-0.972,3.112-1.805,4.524l-39.974,67.669
		c-1.492,2.531-3.167,4.932-5.122,7.127c-1.967,2.207-3.96,2.294-6.745,2.311c-3.484,0.023-6.976,0.777-10.219,2.027
		c-5.514,2.121-7.682-0.537-12.842-4.34l-29.979-21.981c-5.158-3.804-9.103-9.019-8.597-11.627v-2.5
		c0-16.19-13.006-29.316-29.197-29.316s-29.258,13.228-29.258,29.419c0,6.782,2.397,13.561,6.799,18.693
		c4.37,5.093,10.13,9.203,16.877,10.215c2.128,0.319,4.289,0.374,6.437,0.311c1.166-0.034,2.332-0.106,3.495-0.192
		c1.727-0.129,3.187-0.334,4.873-0.67c1.262-0.25,2.549-0.318,3.834-0.266c2.682,0.109,5.427,0.622,7.898,1.685
		c1.323,0.568,2.702,1.283,3.862,2.14c0,0,29.884,21.96,29.884,21.961c2.352,1.733,4.553,3.786,6.306,6.132
		c1.768,2.369,2.198,5.088,2.198,7.973c0,16.19,13.101,29.316,29.292,29.316s29.304-13.126,29.304-29.316
		c0-2.042,0.023-4.019-0.35-6.037c-0.53-2.86-1.56-5.633-1.86-8.536c-0.308-2.978-0.25-5.916,0.41-8.844
		c0.348-1.547,0.895-3.036,1.703-4.405l39.971-67.817c1.401-2.371,2.985-4.649,4.782-6.737c1.313-1.523,2.617-2.749,4.645-3.12
		c1.662-0.305,3.359-0.137,5.032-0.309c1.506-0.154,3.01-0.513,4.462-0.934c3.031-0.883,5.957-2.229,8.474-4.149
		c4.534-3.461,8.529-8.287,10.42-13.714c1.087-3.12,1.73-6.764,1.73-10.073C313.952,108.391,300.826,95.351,284.634,95.351"/>
	<path fill="#FFFFFF" d="M282.273,300.321c0,3.865-3.133,6.998-6.998,6.998s-6.998-3.133-6.998-6.998
		c0-3.865,3.133-6.998,6.998-6.998S282.273,296.456,282.273,300.321"/>
	<path fill="#FFFFFF" d="M336.006,207.565c0,3.988-3.232,7.22-7.22,7.22c-3.987,0-7.22-3.232-7.22-7.22
		c0-3.988,3.233-7.22,7.22-7.22C332.774,200.345,336.006,203.577,336.006,207.565"/>
</g>
</svg>
